<svg version="1.1" id="Layer_1" xmlns="http://www.w3.org/2000/svg" xmlns:xlink="http://www.w3.org/1999/xlink" x="0px" y="0px"
	 width="100%" viewBox="0 0 1024 1024" enable-background="new 0 0 1024 1024" xml:space="preserve">
<path fill="#000000" opacity="1.000000" stroke="none" 
	d="
M446.522034,677.607727 
	C412.905426,666.144531 385.591919,646.293640 363.441406,619.291321 
	C340.131409,590.875610 326.593231,558.019226 321.402313,521.839050 
	C317.888214,497.345978 319.872162,473.014648 326.062103,448.991150 
	C339.627228,396.343964 369.969025,355.955048 416.086700,327.841370 
	C450.565002,306.823151 488.575287,296.623016 528.907227,301.170319 
	C607.215820,309.999359 662.142151,352.421265 693.673889,423.755157 
	C715.458130,473.037415 711.563232,523.510803 690.871460,572.413574 
	C670.769104,619.923157 636.719360,654.235596 588.496399,673.707397 
	C574.001953,679.560059 558.740112,682.204102 543.192627,683.158813 
	C521.725098,684.476929 500.258209,684.764099 478.764587,683.397888 
	C467.891663,682.706726 457.232147,681.257507 446.522034,677.607727 
M489.326782,561.418579 
	C492.154602,567.600159 493.117065,574.169739 493.151886,580.879883 
	C493.253845,600.540527 493.253357,620.201782 493.322998,639.862671 
	C493.348114,646.945068 493.386963,646.969055 500.675873,646.992859 
	C508.840088,647.019531 517.004578,647.023865 525.168701,646.986938 
	C531.795593,646.956970 531.852173,646.923767 531.876892,640.286865 
	C531.943909,622.292114 532.191956,604.293762 531.923828,586.303406 
	C531.683044,570.147827 536.082703,556.122620 548.420471,545.074890 
	C550.632263,543.094360 552.444824,540.628601 554.254761,538.244934 
	C570.170044,517.285034 574.600891,494.816895 562.581360,470.488617 
	C553.082764,451.262756 530.528625,438.434570 510.592072,440.539215 
	C484.393433,443.304932 465.045898,458.741455 459.321045,481.907593 
	C453.230682,506.552765 460.584717,527.545959 477.483948,545.720459 
	C481.802856,550.365356 486.083038,555.021973 489.326782,561.418579 
M421.888916,554.624390 
	C431.553680,569.581482 443.142853,582.459045 460.567780,591.095581 
	C460.828033,581.788696 462.817535,573.651917 455.075867,567.432129 
	C452.234802,565.149597 449.719604,562.419128 447.266479,559.702637 
	C425.615448,535.727173 417.509003,507.644562 424.992065,476.339233 
	C437.524323,423.910828 491.244049,394.826874 542.441040,411.725189 
	C593.080505,428.439514 618.360901,486.406769 596.265015,534.896240 
	C590.477600,547.596863 582.035706,558.076233 571.414795,567.019531 
	C564.697632,572.675720 562.237671,583.122253 565.460205,590.477173 
	C567.043457,590.726135 568.304016,589.855591 569.588806,589.123596 
	C612.730408,564.545959 630.241760,513.598999 618.639343,468.966583 
	C611.536499,441.643372 594.404480,421.405090 571.045044,406.412750 
	C552.818237,394.714661 532.615112,388.961487 510.835327,389.471436 
	C485.387573,390.067261 462.834167,398.558533 443.766846,415.415009 
	C418.166962,438.046539 403.117950,465.904572 404.322083,500.856628 
	C404.983582,520.057068 411.548798,537.657776 421.888916,554.624390 
M383.630005,434.211090 
	C388.543671,424.301453 394.992157,415.437378 401.938873,406.872803 
	C436.249878,364.571075 497.063171,340.868561 554.211426,359.488861 
	C586.249084,369.927490 612.023804,389.134979 632.373596,415.868774 
	C641.582764,427.967010 647.287354,441.766907 652.627380,455.815582 
	C654.937317,461.892670 658.677307,463.148010 665.567139,460.702026 
	C670.945984,458.792480 668.189575,454.758850 667.699951,451.413574 
	C667.485229,449.946259 666.951416,448.515045 666.469910,447.098938 
	C656.426697,417.564178 638.588806,393.340973 614.770081,373.674805 
	C570.699524,337.287354 520.647705,327.160767 466.209198,343.890930 
	C420.073822,358.069366 388.063141,389.532471 366.510071,432.096100 
	C362.837708,439.348450 359.437592,446.794952 358.181885,454.987915 
	C357.639130,458.528961 357.411499,461.783051 361.928314,462.829895 
	C368.530121,464.360016 372.389038,463.018402 373.832397,458.458191 
	C376.397339,450.354492 379.206055,442.360382 383.630005,434.211090 
M605.576538,603.108704 
	C596.469971,610.759399 586.368469,616.822571 575.675110,621.966492 
	C564.323425,627.427063 564.465393,627.455139 565.146362,640.039673 
	C565.380188,644.362183 566.989624,645.008362 570.829895,643.817688 
	C578.836731,641.335388 586.384705,637.851746 593.563904,633.643982 
	C632.875183,610.603210 658.114319,576.967346 669.245300,532.742737 
	C670.350525,528.351685 669.241638,525.618103 664.701904,524.506042 
	C658.124573,522.894897 654.857117,524.144897 653.384644,528.842651 
	C644.328918,557.732788 629.290710,582.794128 605.576538,603.108704 
M359.074219,524.407166 
	C356.662170,524.937256 355.820557,526.651123 356.037384,528.862854 
	C356.263367,531.167725 356.536224,533.515320 357.193604,535.723633 
	C369.360016,576.593994 392.664215,609.131653 429.158661,631.804260 
	C437.558472,637.022705 446.384674,641.237488 455.934326,643.853455 
	C457.592560,644.307678 460.011108,645.430908 460.406738,642.664795 
	C461.088654,637.896240 461.447113,632.924866 460.283905,628.268005 
	C459.451752,624.936462 455.443542,624.493713 452.652344,623.226074 
	C412.916779,605.179626 387.384949,574.857727 374.642120,533.382874 
	C371.444916,522.976746 371.368195,523.000305 359.074219,524.407166 
z"/>
<path fill="#000000" opacity="1.000000" stroke="none" 
	d="
M287.405243,401.482727 
	C309.478668,353.682129 341.710358,314.982391 385.854767,286.737671 
	C413.353790,269.143158 443.316315,257.154114 475.594421,251.863342 
	C535.989380,241.963867 591.816833,254.347733 642.934143,287.842773 
	C693.975220,321.287842 728.959595,367.401306 748.725647,424.858368 
	C759.929199,457.425507 762.063782,491.289154 759.428467,525.503418 
	C755.427612,577.444580 733.197083,621.392761 699.597839,660.046814 
	C670.312317,693.738159 633.914856,717.189819 591.753235,731.624084 
	C582.951599,734.637329 573.786560,736.594177 564.772766,738.976807 
	C563.369812,739.347534 561.864990,739.852722 560.380249,738.848572 
	C559.066650,736.545776 560.514709,734.309204 560.813171,732.110962 
	C561.826843,724.645142 561.905151,717.153625 561.707703,709.666321 
	C561.593445,705.337646 562.996704,703.078796 567.473694,701.937500 
	C615.786682,689.621094 653.941956,662.171082 683.535645,622.593567 
	C704.449158,594.624451 717.352783,562.885803 723.525330,528.675781 
	C733.005310,476.134857 722.615784,427.391479 693.369934,382.695953 
	C659.218750,330.503662 611.313843,298.248413 550.388489,286.125702 
	C509.252533,277.940643 469.012817,283.241882 430.571442,299.906403 
	C375.220337,323.901367 336.524963,365.117218 315.741974,420.929871 
	C286.107513,500.513031 300.205109,574.339417 354.795624,639.105591 
	C381.334320,670.591064 416.188965,691.027832 456.232239,701.790894 
	C460.546600,702.950562 462.446106,704.797607 462.225372,709.288757 
	C461.735413,719.259033 462.865173,729.131775 465.494537,740.366455 
	C389.318909,722.342102 330.561035,682.538818 295.202271,613.201294 
	C260.182739,544.528931 256.747681,473.532654 287.405243,401.482727 
z"/>
</svg>